<svg width="106" height="73" viewBox="0 0 106 73" fill="none" xmlns="http://www.w3.org/2000/svg">
<g clip-path="url(#clip0_135_24)">
<path d="M67.4339 0.53774C67.6331 0.40492 67.7915 0.443659 67.9406 0.443659C70.9787 0.440892 74.0167 0.447348 77.0548 0.435358C77.4179 0.433513 77.5791 0.534972 77.7097 0.897459C78.5451 3.21903 79.413 5.52862 80.279 7.8382C81.5184 11.1449 82.7725 14.445 84.0044 17.7535C84.9065 20.1757 85.7837 22.607 86.6747 25.0337C86.7211 25.1601 86.7933 25.2781 86.8656 25.422C87.1749 25.102 87.2249 24.6924 87.362 24.33C88.2225 22.0527 89.0691 19.7698 89.911 17.4851C90.8104 15.0446 91.6903 12.5976 92.5953 10.1589C93.3307 8.17671 94.0949 6.20563 94.8377 4.22625C95.2656 3.08437 95.6871 1.94065 96.0844 0.788621C96.1854 0.495311 96.3558 0.437203 96.6235 0.439047C97.5025 0.446426 98.3815 0.441814 99.2605 0.441814C101.327 0.441814 103.393 0.441814 105.46 0.441814H105.956C106.08 0.744348 105.903 0.958335 105.822 1.17324C104.923 3.58244 104.013 5.98795 103.097 8.39069C102.354 10.3396 101.591 12.2803 100.851 14.2301C100.132 16.1228 99.4383 18.0256 98.7205 19.9192C97.9008 22.0822 97.057 24.2359 96.2391 26.3988C95.3397 28.7776 94.4626 31.1646 93.5669 33.5434C92.8806 35.366 92.1757 37.1812 91.4866 39.0028C91.393 39.25 91.2698 39.357 90.9845 39.3561C88.2086 39.3441 85.4327 39.345 82.6567 39.3552C82.3992 39.3552 82.276 39.2768 82.1862 39.0379C81.5424 37.3287 80.8867 35.6233 80.2318 33.9179C79.6585 32.4255 79.0777 30.9359 78.5053 29.4426C77.8792 27.81 77.2614 26.1737 76.6361 24.5403C76.0646 23.047 75.4848 21.5564 74.9133 20.0631C74.0982 17.9325 73.2906 15.7981 72.4745 13.6675C71.8382 12.0045 71.1908 10.3461 70.5526 8.684C69.8931 6.96381 69.242 5.23992 68.5834 3.5188C68.2036 2.52634 67.8183 1.53665 67.4312 0.536817L67.4339 0.53774Z" fill="#E51821"/>
<path d="M63.892 11.9427C62.6935 11.25 61.5273 10.5628 60.3482 9.89782C58.153 8.66002 55.7911 8.37317 53.3143 8.64157C51.6573 8.82143 50.1086 9.28999 48.6998 10.1699C46.8566 11.3219 45.5256 12.9075 44.7262 14.933C43.9371 16.9326 43.7129 19.0089 44.0325 21.1128C44.6234 25.007 46.6371 27.9124 50.2744 29.604C52.2955 30.5439 54.436 30.7164 56.6247 30.5088C58.7847 30.3041 60.8076 29.6151 62.7861 28.7665C63.315 28.5396 63.8605 28.3505 64.3996 28.1439C64.5385 28.3348 64.5024 28.5221 64.5163 28.6982C64.7358 31.4782 64.9498 34.2591 65.1795 37.0382C65.2082 37.3822 65.1434 37.5326 64.7738 37.6589C63.3826 38.133 61.9803 38.5841 60.5437 38.8746C58.5949 39.2685 56.6099 39.3957 54.6185 39.3413C53.1402 39.3007 51.6629 39.1845 50.2161 38.8912C46.148 38.0675 42.494 36.4221 39.5523 33.4087C37.6146 31.4238 36.2132 29.1253 35.3462 26.4938C34.7339 24.6353 34.4135 22.737 34.3097 20.7835C34.2097 18.9037 34.2847 17.0378 34.6673 15.2051C35.5759 10.8451 37.6877 7.17779 41.2186 4.38397C43.0007 2.97368 44.98 1.92681 47.1456 1.19815C49.2296 0.497154 51.3581 0.149426 53.5459 0.0332085C55.6985 -0.0811639 57.8242 0.10423 59.9222 0.535893C61.5431 0.869787 63.0797 1.47762 64.5719 2.19983C64.86 2.3391 64.8127 2.51804 64.7951 2.71542C64.6441 4.47067 64.4839 6.225 64.3292 7.97932C64.2283 9.12397 64.1338 10.2695 64.0365 11.4142C64.0226 11.5811 64.0291 11.7527 63.892 11.9427Z" fill="#E51821"/>
<path d="M31.0002 4.0427C31.0002 5.09326 31.0585 6.15213 30.9742 7.19993C30.9353 7.6897 30.626 8.15918 30.4287 8.63419C29.5136 10.8414 28.5975 13.0477 27.6768 15.253C26.9553 16.9806 26.2226 18.7036 25.502 20.4311C24.6823 22.3948 23.8718 24.3632 23.0512 26.3278C22.3352 28.0406 21.6072 29.7488 20.8912 31.4616C19.8807 33.8764 18.8711 36.2911 17.8716 38.7104C17.5641 39.4548 17.5076 39.511 16.8315 39.416C16.2776 39.3386 16.0951 39.1366 16.0692 38.5693C16.0636 38.4466 16.0673 38.324 16.0673 38.2013C16.0673 29.3291 16.071 20.4561 16.0571 11.5839C16.0571 11.1033 16.1961 10.8811 16.6527 10.6726C18.9025 9.64971 21.1246 8.56779 23.3596 7.51169C25.7456 6.38456 28.1325 5.26113 30.5222 4.14139C30.6538 4.07959 30.7955 4.00119 31.0011 4.04362L31.0002 4.0427Z" fill="#E51922"/>
<path d="M18.7119 39.4059C22.7957 32.443 26.8369 25.5512 30.8993 18.6252C31.0596 18.8382 31.0003 19.0107 31.0003 19.1684C31.004 25.5659 31.004 31.9634 31.0031 38.3618C31.0031 39.1596 30.7419 39.428 29.9333 39.4299C27.6677 39.4345 25.4021 39.4317 23.1365 39.4317C21.7805 39.4317 20.4236 39.4317 19.0675 39.4317C18.9786 39.4317 18.8888 39.4197 18.7109 39.4077L18.7119 39.4059Z" fill="#E61B24"/>
<path d="M16.0981 9.90982C16.0981 9.183 16.088 8.54565 16.1028 7.9083C16.1083 7.6565 16.2871 7.50892 16.5103 7.40377C18.649 6.39656 20.7858 5.38658 22.9236 4.37659C24.8224 3.48006 26.7221 2.58353 28.6209 1.687C29.034 1.49146 29.4416 1.28485 29.8575 1.09761C30.441 0.833819 30.9884 1.18893 31.0041 1.83273C31.031 2.90543 31.0245 2.89068 30.0733 3.33525C27.9753 4.31664 25.8876 5.31832 23.7924 6.30617C21.9149 7.19163 20.0347 8.06971 18.1553 8.95057C17.4958 9.25955 16.8354 9.5667 16.0981 9.91074V9.90982Z" fill="#E61E26"/>
<path d="M1.493 38.9207C1.4967 37.2144 1.49763 35.5071 1.50689 33.8007C1.50782 33.6282 1.42909 33.4318 1.60137 33.287C3.11114 34.0581 4.62184 34.8264 6.13069 35.5993C8.0971 36.6065 10.0589 37.6211 12.0318 38.6136C12.1707 38.6837 12.2698 38.9392 12.5273 38.7685C12.3291 38.3775 11.9336 38.1819 11.6187 37.9264C8.35182 35.2747 5.07107 32.6395 1.7931 30.0015C1.24013 29.556 1.29293 28.8993 1.92648 28.6263C3.86047 27.7934 5.7991 26.9716 7.73679 26.1479C8.04708 26.016 8.33514 26.0612 8.64821 26.1959C10.6118 27.0398 12.582 27.8709 14.5567 28.6881C14.7975 28.7877 14.8337 28.9242 14.8327 29.1419C14.8262 32.396 14.8244 35.65 14.8216 38.905C14.6836 38.9475 14.6428 39.0545 14.6317 39.1836C14.5437 39.2426 14.4557 39.3007 14.3687 39.3598C14.126 39.3662 13.8833 39.3791 13.6407 39.3791C9.98293 39.3801 6.32427 39.3782 2.66655 39.3838C2.32291 39.3838 1.99502 39.3422 1.6801 39.2085L1.67362 39.203C1.65602 39.107 1.61156 39.0314 1.51708 38.9927C1.51893 38.965 1.5106 38.9419 1.49115 38.9226L1.493 38.9207Z" fill="#E51A23"/>
<path d="M1.97087 27.8663C1.83934 27.893 1.70689 27.9198 1.53924 27.9539C1.46236 27.4152 1.51701 26.9006 1.50867 26.3887C1.73838 25.9441 2.22003 25.8832 2.6109 25.7126C4.2735 24.9885 5.95741 24.3124 7.62094 23.5921C8.28876 23.3034 8.81023 23.6732 9.35764 23.8964C10.9397 24.543 12.5078 25.2219 14.0833 25.8841C14.7595 26.1682 14.8317 26.2697 14.8327 27.0094C14.8327 27.3295 14.8327 27.6504 14.8327 28.0268C14.1296 27.8395 13.5239 27.5232 12.8996 27.2649C11.4195 26.6525 9.94951 26.016 8.47771 25.3851C8.23504 25.2809 8.00533 25.2929 7.77007 25.3934C5.837 26.218 3.90393 27.0417 1.96994 27.8663H1.97087Z" fill="#E61E27"/>
<path d="M0 60.7483C0.215814 60.7502 0.431628 60.7529 0.647443 60.7529C35.1129 60.7529 69.5793 60.7529 104.045 60.7529H104.679C104.808 60.9863 104.764 61.1938 104.725 61.405C104.52 61.5249 104.299 61.4687 104.09 61.4687C69.6089 61.4714 35.1277 61.4714 0.646517 61.4724C0.430702 61.4724 0.214888 61.4807 0 61.4853C0 61.239 0 60.9937 0 60.7483Z" fill="black"/>
<path d="M0 47.114C0.318627 47.091 0.528884 47.233 0.730805 47.4848C1.55794 48.5197 2.41934 49.5278 3.24833 50.5618C3.49378 50.8671 3.63828 50.8533 3.87725 50.5553C4.66918 49.5638 5.4852 48.5917 6.29288 47.613C6.39014 47.4959 6.49017 47.3815 6.59206 47.2681C6.77731 47.0605 7.02276 47.1039 7.23765 47.162C7.44791 47.2183 7.39233 47.4359 7.39326 47.5983C7.39604 50.0683 7.39419 52.5384 7.39604 55.0085C7.39604 55.2492 7.40901 55.4697 7.05611 55.478C6.69117 55.4872 6.66801 55.2815 6.66894 55.0057C6.67357 52.9802 6.67172 50.9557 6.67079 48.9302C6.67079 48.7687 6.65782 48.6073 6.54297 48.4016C5.57134 49.5841 4.59971 50.7675 3.57437 52.0164C2.57125 50.8025 1.58017 49.6035 0.58168 48.3952C0.396431 48.5769 0.462194 48.7549 0.462194 48.9126C0.457563 50.9381 0.45108 52.9627 0.466826 54.9882C0.469604 55.3433 0.351972 55.502 0.00370497 55.4973V47.114H0Z" fill="black"/>
<path d="M79.7 54.0907C79.7 53.2625 79.7 52.4831 79.7 51.7037C79.7 50.3681 79.7 49.0325 79.7 47.6979C79.7 47.1057 79.725 47.0873 80.3808 47.1777V55.4033C80.1066 55.5554 79.8862 55.4577 79.6991 55.2428C78.043 53.3399 76.3896 51.4334 74.7317 49.5315C74.4121 49.1644 74.0768 48.8112 73.7267 48.4275C73.6202 48.6027 73.6637 48.7567 73.6628 48.8988C73.6591 50.9252 73.6609 52.9507 73.66 54.9771C73.66 55.2013 73.7128 55.4494 73.3497 55.4743C72.9644 55.501 72.9311 55.2889 72.932 54.9891C72.9385 52.9479 72.9357 50.9058 72.9357 48.8647C72.9357 48.4653 72.9273 48.0659 72.9394 47.6674C72.9449 47.483 72.8486 47.2358 73.1135 47.1518C73.371 47.0707 73.5831 47.1629 73.7647 47.376C74.3964 48.1194 75.041 48.8527 75.682 49.5887C76.9667 51.0654 78.2514 52.543 79.537 54.0179C79.5546 54.0382 79.5898 54.0419 79.7009 54.0898L79.7 54.0907Z" fill="black"/>
<path d="M16.4057 51.2978C16.4057 50.1015 16.4196 48.9043 16.3982 47.708C16.3899 47.2616 16.5557 47.1094 16.9947 47.1269C18.0395 47.1694 19.0843 47.1251 20.131 47.2016C22.1595 47.3501 23.6878 48.765 23.8573 50.7786C23.9897 52.3503 23.5627 53.7126 22.2289 54.6829C21.3842 55.2972 20.3802 55.394 19.3882 55.4595C18.5592 55.5139 17.7246 55.4623 16.8919 55.4752C16.5326 55.4807 16.3982 55.3322 16.401 54.9799C16.4112 53.7522 16.4047 52.5255 16.4047 51.2978H16.4057ZM17.2133 47.8132C17.1652 47.9331 17.1448 47.9607 17.1448 47.9884C17.1402 50.168 17.1383 52.3466 17.1309 54.5261C17.1309 54.7696 17.2467 54.8517 17.4708 54.8471C18.4091 54.8277 19.3576 54.9421 20.282 54.7447C21.2545 54.5372 22.0706 54.0649 22.6152 53.1794C23.082 52.4213 23.1357 51.6105 23.0616 50.761C22.9505 49.49 22.2428 48.6405 21.1276 48.1249C19.8652 47.542 18.5166 47.9405 17.2143 47.8122L17.2133 47.8132Z" fill="black"/>
<path d="M43.2831 51.0746C43.0024 50.5821 42.6523 50.2168 42.4736 49.7363C42.0188 48.516 43.0154 47.483 43.9111 47.3917C44.7484 47.3068 45.5246 47.4055 45.9775 48.2365C46.4194 49.0482 46.1174 50.1255 45.3097 50.6992C45.0744 50.8662 44.8364 51.0276 44.5567 51.2213C45.068 51.8992 45.67 52.4462 46.2582 53.0513C46.6046 52.6639 46.8121 52.2543 46.9297 51.8199C47.0696 51.3025 47.3623 51.1586 47.8782 51.3154C47.7152 51.9942 47.4132 52.6141 47.0362 53.1961C46.8334 53.5097 46.8584 53.7513 47.1242 54.0077C47.4651 54.337 47.78 54.6921 48.1162 55.026C48.2172 55.1266 48.3274 55.205 48.2885 55.3996C47.9606 55.537 47.6494 55.5112 47.3826 55.2437C47.1668 55.0269 46.9538 54.8047 46.7621 54.5658C46.5055 54.2476 46.2897 54.2337 45.9822 54.5307C45.2819 55.2059 44.4409 55.5324 43.4452 55.502C42.5106 55.4734 41.778 55.1376 41.4677 54.2356C41.1879 53.4202 41.3667 52.6436 41.9595 51.985C42.3124 51.593 42.7681 51.343 43.2822 51.0746H43.2831ZM43.6425 54.8646C44.3501 54.8554 44.9476 54.587 45.4533 54.1009C45.8979 53.6729 45.8932 53.6655 45.4709 53.2523C45.1319 52.9212 44.7929 52.5882 44.4807 52.2331C43.7379 51.3882 43.9676 51.4178 42.9534 52.009C42.2902 52.3955 41.9484 53.1998 42.1253 53.8426C42.3013 54.4818 42.8617 54.8582 43.6416 54.8637L43.6425 54.8646ZM45.4588 49.1303C45.4616 48.4865 45.0633 48.0309 44.4363 47.9626C43.8194 47.8962 43.2414 48.2956 43.0941 48.8896C42.9719 49.383 43.5045 50.4908 43.9593 50.6808C44.012 50.7029 44.0815 50.7039 44.1389 50.6937C44.8068 50.572 45.4551 49.8009 45.4579 49.1303H45.4588Z" fill="black"/>
<path d="M97.962 48.48C97.4933 48.3048 97.0469 48.1 96.5791 47.9718C95.5065 47.6785 94.4284 47.5863 93.3929 48.1185C92.2564 48.7023 91.6173 49.6311 91.5126 50.9058C91.3903 52.4019 91.8775 53.6213 93.2261 54.3859C94.3145 55.0029 95.4982 55.0177 96.6616 54.6644C97.4674 54.42 97.4489 54.3591 97.4489 53.4921V52.2571C96.9626 52.2571 96.5347 52.2543 96.1077 52.258C95.8919 52.2599 95.7038 52.2506 95.6992 51.9573C95.6946 51.6788 95.8511 51.6262 96.0836 51.629C96.6699 51.6345 97.2562 51.6382 97.8416 51.628C98.1037 51.6234 98.188 51.7277 98.1852 51.9832C98.1732 52.8271 98.1686 53.672 98.188 54.5159C98.1936 54.7677 98.0685 54.8987 97.8851 54.9716C96.5875 55.4853 95.2629 55.6855 93.8773 55.3442C92.7213 55.0592 91.8627 54.3877 91.2653 53.3962C90.3029 51.8005 90.5678 49.5343 92.0424 48.2024C93.3465 47.0246 94.873 46.9351 96.4856 47.233C96.844 47.2994 97.1793 47.4839 97.5359 47.5706C98.0574 47.696 98.0676 48.0355 97.962 48.481V48.48Z" fill="black"/>
<path d="M70.5555 48.4607C70.1322 48.4127 69.7978 48.1757 69.4236 48.0502C68.2278 47.649 67.0311 47.5568 65.8946 48.1461C64.8415 48.6922 64.2227 49.5952 64.1051 50.8035C63.9884 51.9988 64.219 53.0586 65.1508 53.9155C66.1327 54.8185 67.3006 54.9568 68.5455 54.8185C68.8465 54.7853 69.1429 54.6838 69.4384 54.6128C69.87 54.5086 70.0303 54.3112 69.9942 53.8795C69.9627 53.4986 69.9617 53.1103 69.9942 52.7293C70.0284 52.3281 69.8589 52.2239 69.4894 52.2506C69.1235 52.2774 68.753 52.2562 68.3973 52.2562C68.2074 51.6991 68.25 51.6336 68.7817 51.6308C69.2902 51.6281 69.7996 51.6419 70.3082 51.6253C70.5962 51.6161 70.7259 51.6926 70.7185 52.009C70.7009 52.8373 70.7037 53.6674 70.7185 54.4957C70.7231 54.7502 70.6333 54.9033 70.4026 54.9882C68.8299 55.5684 67.2432 55.8073 65.6621 55.0518C64.3228 54.4117 63.5114 53.3381 63.3197 51.8669C63.0316 49.6616 64.1588 48.2596 65.5667 47.5383C66.7421 46.936 68.0018 46.9794 69.2578 47.2847C69.5542 47.3566 69.833 47.4987 70.1294 47.5688C70.6509 47.6914 70.649 48.0336 70.5555 48.4588V48.4607Z" fill="black"/>
<path d="M14.4646 55.4438H9.93066V47.2164C10.0159 47.1214 10.1122 47.1334 10.2021 47.1334C11.4664 47.1325 12.7307 47.1343 13.9941 47.1306C14.2303 47.1306 14.422 47.1435 14.4303 47.4571C14.4387 47.7846 14.2581 47.8307 13.9895 47.8289C13.0178 47.8215 12.0471 47.8381 11.0755 47.8196C10.7439 47.8132 10.6087 47.8916 10.6179 48.2513C10.642 49.1386 10.6253 50.0268 10.6253 50.9667H14.2275C14.4063 51.5174 14.3572 51.6004 13.8681 51.6022C12.928 51.6068 11.9869 51.6142 11.0468 51.5976C10.7319 51.5921 10.6115 51.6788 10.6179 52.0099C10.6374 52.9286 10.6244 53.8482 10.6244 54.8323H14.4452C14.5508 55.0703 14.5461 55.2437 14.4618 55.4448L14.4646 55.4438Z" fill="black"/>
<path d="M36.2551 55.3618C35.7873 55.5084 35.5502 55.3544 35.3816 54.9273C35.1019 54.2208 34.7453 53.5447 34.4415 52.8474C34.347 52.6297 34.2229 52.5541 33.9895 52.5569C32.9104 52.567 31.8323 52.5652 30.7532 52.5587C30.4911 52.5569 30.341 52.6408 30.229 52.8991C29.9214 53.6102 29.5472 54.2946 29.2527 55.0113C29.0813 55.4291 28.822 55.4724 28.4635 55.3747C28.3691 55.2382 28.4376 55.1321 28.4895 55.0214C29.6695 52.4794 30.8477 49.9374 32.0249 47.3944C32.0916 47.2505 32.15 47.1279 32.3473 47.1186C32.5798 47.1085 32.6363 47.292 32.6992 47.4267C33.3393 48.7927 33.9663 50.1633 34.5962 51.534C35.0917 52.6131 35.5836 53.6932 36.0791 54.7724C36.1615 54.9522 36.2542 55.1284 36.2551 55.3608V55.3618ZM34.0506 51.9684C33.4791 50.7315 32.941 49.5647 32.3547 48.2956C31.7193 49.5518 31.1941 50.7324 30.6643 51.9684H34.0506Z" fill="black"/>
<path d="M82.0737 55.323C82.3349 54.7521 82.5915 54.1876 82.849 53.624C83.6085 51.9629 84.3671 50.3017 85.1303 48.6424C85.3332 48.2015 85.5583 47.7717 85.7555 47.3289C85.8232 47.1777 85.9074 47.1196 86.0677 47.1214C86.2353 47.1233 86.2844 47.21 86.352 47.3538C87.4376 49.6994 88.5463 52.0348 89.617 54.3868C89.7495 54.6783 89.9653 54.967 89.9477 55.347C89.5781 55.4734 89.3234 55.4429 89.1511 55.0269C88.8547 54.3103 88.4981 53.6185 88.1869 52.9074C88.0813 52.6657 87.9535 52.5523 87.6738 52.5559C86.5799 52.5707 85.4851 52.5642 84.3912 52.5596C84.192 52.5596 84.0633 52.5892 83.9707 52.8077C83.6622 53.5355 83.3149 54.2457 82.9926 54.9679C82.7906 55.4208 82.6591 55.4853 82.0737 55.323ZM84.3421 51.973H87.7423C87.1755 50.738 86.6383 49.5693 86.101 48.3998C86.0584 48.4007 86.0158 48.4016 85.9732 48.4035C85.4332 49.5841 84.8941 50.7647 84.3412 51.9739L84.3421 51.973Z" fill="black"/>
<path d="M104.703 47.1334C104.781 47.388 104.766 47.5678 104.731 47.7541C104.493 47.8879 104.243 47.8187 104.004 47.8215C103.172 47.8307 102.34 47.8261 101.508 47.8242C101.311 47.8242 101.133 47.8279 101.133 48.101C101.137 49.0353 101.135 49.9687 101.135 50.964H104.676C104.791 51.1945 104.775 51.3689 104.702 51.6022C103.778 51.6022 102.841 51.5985 101.906 51.6031C101.043 51.6068 101.139 51.5017 101.134 52.3567C101.131 53.0319 101.149 53.707 101.128 54.3813C101.116 54.7502 101.259 54.86 101.615 54.8526C102.493 54.8342 103.371 54.8443 104.249 54.848C104.399 54.848 104.557 54.813 104.71 54.8969C104.786 55.0694 104.78 55.2428 104.686 55.4706C103.92 55.4706 103.138 55.4706 102.356 55.4706C101.848 55.4706 101.339 55.4614 100.831 55.4743C100.543 55.4817 100.407 55.3903 100.408 55.0823C100.415 52.567 100.412 50.0517 100.411 47.5365C100.411 47.3197 100.435 47.1316 100.721 47.1325C102.043 47.1343 103.365 47.1325 104.7 47.1325L104.703 47.1334Z" fill="black"/>
<path d="M53.8616 54.052C54.2979 54.2798 54.6814 54.504 55.0843 54.6857C55.9762 55.0878 56.8691 54.8526 57.361 54.1073C57.8306 53.3971 57.6055 52.4351 56.883 51.9896C56.3051 51.6327 55.6585 51.4362 55.0417 51.1715C54.2368 50.8256 53.732 50.2445 53.6977 49.3738C53.6634 48.4957 54.0969 47.8159 54.8694 47.3963C55.8632 46.8567 56.8608 47.0375 57.8259 47.495C58.1798 47.6628 57.9964 47.9866 57.9853 48.2965C57.4619 48.1093 57.009 47.8427 56.4875 47.7671C55.7938 47.6665 55.1982 47.8464 54.7573 48.3933C54.3952 48.8416 54.3813 49.5029 54.7008 49.9863C54.9574 50.3736 55.3872 50.5323 55.7901 50.714C56.3171 50.952 56.8645 51.1383 57.3758 51.4168C58.1529 51.8402 58.3882 52.5393 58.3761 53.3381C58.3632 54.2466 57.8871 54.931 57.0711 55.2861C56.004 55.7501 54.9703 55.5139 54.0089 54.9144C53.6579 54.6958 53.8061 54.3868 53.8607 54.0548L53.8616 54.052Z" fill="black"/>
<path d="M60.5119 47.1611C61.1445 47.0993 61.1593 47.1103 61.1593 47.7136C61.1593 50.1357 61.1602 52.5578 61.1575 54.979C61.1575 55.181 61.2269 55.4282 60.8972 55.4724C60.5137 55.5241 60.4313 55.3387 60.4331 54.9937C60.4443 52.5107 60.4387 50.0278 60.4396 47.5439C60.4396 47.4239 60.4146 47.2976 60.5109 47.1602L60.5119 47.1611Z" fill="black"/>
<path d="M26.0256 51.2591C26.0256 50.1089 26.0256 48.9588 26.0256 47.8086C26.0256 47.7016 26.0228 47.5937 26.0284 47.4867C26.0413 47.2579 26.1275 47.1205 26.397 47.1279C26.6638 47.1352 26.7453 47.2625 26.7425 47.5023C26.7379 48.0548 26.7416 48.6064 26.7416 49.1589C26.7416 51.0912 26.7416 53.0236 26.7416 54.9559C26.7416 55.1957 26.7981 55.4651 26.4044 55.4734C25.9885 55.4817 26.0284 55.1976 26.0274 54.9393C26.0237 53.7126 26.0256 52.4858 26.0256 51.2582V51.2591Z" fill="black"/>
<path d="M70.6521 73C70.3307 73 70.0176 72.881 69.7897 72.6551C69.6952 72.5619 69.6174 72.454 69.5952 72.299C69.5137 71.7447 69.6776 71.3324 70.2704 71.1405C70.0769 70.7559 70.0732 70.4294 70.4437 70.1794C70.239 69.876 69.925 69.6712 69.8768 69.2931C69.7758 68.4888 70.2871 67.8892 71.1615 67.8468C71.7145 67.8201 72.2702 67.8422 72.8093 67.8422C72.9603 68.0082 72.9213 68.1715 72.8852 68.331C72.7537 68.4611 72.5796 68.3652 72.4332 68.4362C72.3387 68.5561 72.4443 68.6677 72.4805 68.7673C72.7018 69.3733 72.4536 69.9673 71.8506 70.2053C71.6376 70.2892 71.4116 70.3409 71.1902 70.4017C71.0791 70.4322 70.9142 70.3814 70.8938 70.5502C70.8716 70.7375 71.0207 70.8094 71.1708 70.8666C71.4875 70.9865 71.8321 70.969 72.1516 71.1027C73.0093 71.4606 73.1659 72.1145 72.5295 72.7962C72.5295 72.7962 72.5286 72.7971 72.5277 72.798C72.411 72.9244 72.2489 73 72.0766 73H70.6511H70.6521ZM71.1948 72.5499C71.2708 72.5499 71.3486 72.5591 71.4236 72.5481C71.7228 72.5038 72.0905 72.501 72.1563 72.133C72.2332 71.7032 71.795 71.7207 71.5487 71.5879C71.4607 71.5408 71.3412 71.5418 71.2356 71.5353C70.6697 71.5003 70.3149 71.7013 70.3168 72.05C70.3195 72.3885 70.6039 72.5527 71.1948 72.5499ZM71.2032 68.4851C70.8595 68.4961 70.577 68.8097 70.5965 69.1612C70.6159 69.5209 70.8512 69.71 71.2587 69.6915C71.6413 69.674 71.858 69.4628 71.8886 69.0947C71.9145 68.7885 71.5412 68.4749 71.2032 68.486V68.4851Z" fill="black"/>
<path d="M68.136 67.7629C68.136 67.3275 68.1499 66.8857 68.1314 66.4448C68.1175 66.1201 68.2657 66.0122 68.5686 66.003C68.9002 65.9929 68.9391 66.181 68.9382 66.4448C68.9326 67.963 68.9252 69.4803 68.9428 70.9985C68.9465 71.3536 68.8215 71.456 68.4862 71.4283C67.9971 71.3886 67.4914 71.5086 67.0153 71.3702C66.0085 71.0778 65.5157 70.2006 65.7269 69.1528C65.9131 68.2286 66.6791 67.678 67.6516 67.7656C67.7878 67.7776 67.9165 67.8643 68.1351 67.7629H68.136ZM68.2009 69.6684C68.2009 69.4535 68.2037 69.2386 68.2009 69.0237C68.1925 68.5506 68.0314 68.3956 67.5525 68.3956C66.8828 68.3956 66.5114 68.8743 66.5198 69.7247C66.5272 70.4976 66.7726 70.7079 67.6729 70.7033C68.3204 70.6996 68.1879 70.7356 68.2009 69.852C68.2009 69.7902 68.2009 69.7293 68.2009 69.6675V69.6684Z" fill="black"/>
<path d="M31.2636 71.3785C30.7258 71.4461 30.4565 71.2447 30.4559 70.7743C30.4559 69.3475 30.4605 67.9206 30.4522 66.4937C30.4504 66.1939 30.4856 65.9965 30.8672 65.9975C31.2627 65.9984 31.2701 66.2225 31.2655 66.5084C31.2562 67.0222 31.2627 67.5369 31.2627 68.1097C31.9203 67.726 32.515 67.5765 33.1022 68.0921C33.3356 68.2969 33.4708 68.5487 33.4773 68.8494C33.494 69.6011 33.4857 70.3528 33.5023 71.1036C33.5088 71.3831 33.3708 71.4366 33.1309 71.4283C32.904 71.42 32.6882 71.4384 32.69 71.1138C32.6946 70.5004 32.6854 69.8861 32.6919 69.2727C32.6956 68.9342 32.6391 68.605 32.3223 68.438C31.9888 68.2618 31.7165 68.4897 31.4461 68.6686C31.2571 68.794 31.2618 68.9702 31.2618 69.1556C31.2618 69.8889 31.2618 70.6222 31.2618 71.3785H31.2636Z" fill="black"/>
<path d="M37.5972 69.6998H35.2723C35.2686 70.0863 35.4029 70.3445 35.6901 70.5484C35.9994 70.767 36.3394 70.6775 36.6719 70.7015C37.0109 70.7255 37.223 70.3464 37.5731 70.4359C37.7213 70.9911 37.6759 71.1442 36.9868 71.3315C35.9818 71.6036 35.2834 71.4855 34.7472 70.6757C34.2859 69.9793 34.3016 69.08 34.8481 68.3726C35.3122 67.7721 36.0874 67.6171 36.7506 67.892C37.2906 68.1161 37.8232 68.9841 37.5972 69.7007V69.6998ZM35.277 69.187H36.8886C36.8534 68.7267 36.5709 68.4233 36.1884 68.4002C35.7484 68.3735 35.4094 68.6493 35.277 69.187Z" fill="black"/>
<path d="M76.5473 70.375C76.6556 71.0548 76.5658 71.1811 75.9026 71.396C74.93 71.7124 73.9195 71.2761 73.5805 70.3012C73.3508 69.6417 73.361 68.9499 73.8538 68.3522C74.2946 67.8173 74.8485 67.6955 75.5071 67.8247C76.2759 67.9741 76.6992 68.6409 76.6038 69.6823H74.2446C74.3298 70.3196 74.6781 70.6581 75.1616 70.7116C75.6525 70.7661 76.0832 70.589 76.5482 70.3759L76.5473 70.375ZM75.8591 69.2045C75.8322 68.6797 75.584 68.4159 75.1459 68.3993C74.6624 68.3799 74.3604 68.6557 74.2826 69.2045H75.8591Z" fill="black"/>
<path d="M64.9119 69.6832H62.5472C62.4629 70.1886 62.8528 70.6563 63.3549 70.7015C63.8504 70.7467 64.3246 70.6766 64.7387 70.3556C64.9526 70.9809 64.8368 71.1608 64.1533 71.3923C63.1789 71.7225 62.0989 71.2346 61.8108 70.2569C61.6015 69.5476 61.6413 68.8189 62.1934 68.2332C62.6361 67.7638 63.2039 67.6946 63.8078 67.8329C64.4932 67.9907 65.0017 68.8125 64.9119 69.6823V69.6832ZM62.4879 69.1556C62.9177 69.2561 63.805 69.2506 64.1875 69.1473C64.0921 68.7221 63.8643 68.4352 63.403 68.402C62.9519 68.3688 62.6972 68.58 62.4879 69.1556Z" fill="black"/>
<path d="M55.4422 71.1829C55.1829 71.3397 54.9569 71.4449 54.6772 71.4384C54.1918 71.4255 53.7963 71.2051 53.6926 70.8444C53.574 70.4322 53.7778 69.9359 54.2001 69.7229C54.4558 69.5937 54.7012 69.4388 55.0032 69.3927C55.27 69.3521 55.5163 69.2128 55.432 68.8688C55.3496 68.533 55.0653 68.4777 54.7818 68.5026C54.604 68.5183 54.4317 68.6096 54.2594 68.6741C54.0927 68.7369 54.0084 68.9527 53.7565 68.9241C53.6435 68.6326 53.637 68.3568 53.8973 68.117C54.403 67.6503 54.9976 67.7195 55.5877 67.8708C55.9498 67.9639 56.2453 68.5017 56.2481 68.985C56.2508 69.5956 56.2481 70.2062 56.2481 70.7753C56.4444 70.9358 56.5333 70.7033 56.676 70.7513C56.7908 71.016 56.7371 71.2355 56.4611 71.348C56.1063 71.4929 55.7525 71.5205 55.4404 71.1829H55.4422ZM55.4154 69.7146C54.9828 69.84 54.7772 69.9442 54.6095 70.0909C54.4076 70.267 54.3419 70.4746 54.4938 70.6996C54.6346 70.909 54.8365 70.9828 55.0977 70.8896C55.5358 70.7328 55.6395 70.3906 55.4154 69.7155V69.7146Z" fill="black"/>
<path d="M49.806 67.9021C50.0774 67.8127 50.3025 67.8293 50.6082 67.8883C50.6082 68.6234 50.6017 69.3696 50.61 70.1149C50.6156 70.5779 50.8119 70.7771 51.2417 70.7909C51.7159 70.8057 52.0892 70.4488 52.092 69.9691C52.0957 69.282 52.0929 68.5939 52.0929 67.916C52.3449 67.8071 52.5514 67.8302 52.7941 67.8846V71.3933C52.5014 71.3877 52.1716 71.6146 52.0355 71.1359C51.6872 71.2042 51.4344 71.4421 51.0703 71.4495C50.3303 71.4652 49.8616 70.9763 49.8181 70.3205C49.7653 69.5273 49.806 68.7276 49.806 67.903V67.9021Z" fill="black"/>
<path d="M48.591 68.6539C48.3947 68.7184 48.2242 68.6059 48.0733 68.5275C47.7824 68.3771 47.4768 68.2849 47.3221 68.6234C47.1609 68.9767 47.5397 69.0532 47.7602 69.1907C48.0955 69.4 48.4614 69.5688 48.6846 69.9212C49.0801 70.5428 48.6874 71.3573 47.9482 71.4237C47.7194 71.444 47.4869 71.4384 47.2563 71.4265C46.5681 71.3905 46.3884 71.1636 46.4885 70.4395C46.8302 70.4395 47.0738 70.7356 47.4184 70.7467C47.662 70.755 47.9019 70.7679 48.0112 70.5318C48.1353 70.2643 47.8815 70.1536 47.7065 70.0457C47.3804 69.8455 47.0488 69.6601 46.758 69.4046C46.4375 69.1233 46.3819 68.7691 46.4894 68.403C46.5913 68.0562 46.8756 67.8883 47.2378 67.808C47.5685 67.7343 47.8815 67.7758 48.1927 67.8532C48.692 67.9768 48.7476 68.1023 48.5901 68.6529L48.591 68.6539Z" fill="black"/>
<path d="M43.8871 67.8994C43.763 68.5164 43.4471 69.0274 43.2378 69.5762C43.0377 70.101 42.7876 70.6074 42.5616 71.123C42.507 71.2484 42.4736 71.3942 42.3106 71.4237C42.1004 71.4615 42.0476 71.2743 41.9911 71.1497C41.5937 70.2901 41.2019 69.4277 40.8305 68.5561C40.7425 68.3504 40.5535 68.1825 40.5693 67.9335C41.1862 67.7167 41.3288 67.7822 41.5706 68.3504C41.7614 68.7968 41.9698 69.2359 42.1717 69.6804C42.4486 69.7182 42.457 69.4554 42.5255 69.3309C42.6867 69.0403 42.7793 68.711 42.896 68.3965C43.1146 67.8117 43.16 67.785 43.8862 67.8984L43.8871 67.8994Z" fill="black"/>
<path d="M27.7653 68.604C27.5513 68.5699 27.4031 68.5469 27.2559 68.5229C27.2957 68.1973 27.6514 67.7988 28.4294 67.1919C28.5331 67.2205 28.5109 67.3146 28.5035 67.3773C28.4618 67.7426 28.6202 67.8532 28.9814 67.8532C29.2352 67.8532 29.6761 67.6411 29.6761 68.1715C29.6761 68.6907 29.2482 68.5588 28.9546 68.5487C28.6202 68.5376 28.4711 68.6262 28.5017 68.9841C28.5304 69.3189 28.497 69.6583 28.5109 69.995C28.5369 70.6351 28.7471 70.7956 29.3834 70.6932C29.5011 70.6738 29.6076 70.5788 29.7373 70.636C29.879 71.23 29.7539 71.4052 29.1676 71.4311C28.1173 71.4781 27.7708 71.1516 27.7653 70.1056C27.7625 69.6177 27.7653 69.1298 27.7653 68.6031V68.604Z" fill="black"/>
<path d="M58.2792 66.0491V71.3508C58.0745 71.4827 57.8597 71.3905 57.6726 71.4209C57.5003 71.242 57.5605 71.0492 57.5605 70.8731C57.5559 69.4489 57.5577 68.0257 57.5577 66.6016C57.5577 65.98 57.5707 65.9698 58.2792 66.0491Z" fill="black"/>
<path d="M44.7349 67.892C44.9572 67.8154 45.1535 67.833 45.3906 67.8791V71.3582C45.1971 71.4744 44.9868 71.4218 44.7349 71.3942V67.8929V67.892Z" fill="black"/>
<path d="M45.0364 66.3701C45.3356 66.3627 45.4329 66.5352 45.4477 66.8018C45.4644 67.0988 45.2624 67.2371 45.0346 67.2436C44.7873 67.2509 44.6122 67.0619 44.6104 66.799C44.6085 66.5343 44.7576 66.3775 45.0364 66.3701Z" fill="black"/>
</g>
<defs>
<clipPath id="clip0_135_24">
<rect width="106" height="73" fill="white"/>
</clipPath>
</defs>
</svg>
